# xmcd
#
# Track frame offsets:
# 150
# 19995
# 40042
# 59445
# 74548
# 93351
# 104361
# 118317
# 137472
# 156322
# 177734
#
# Disc length: 2606 seconds
#
# Revision: 0
# Processed by: cddbd v1.5.2PL0 Copyright (c) Steve Scherf et al.
# Submitted via: Audion 3.0.2 (http://www.panic.com/audion/)
#
DISCID=9f0a2c0b
DTITLE=HOLLY - HOLLWEERD
DYEAR=1900
DGENRE=
TTITLE0=H
TTITLE1=H
TTITLE2=H
TTITLE3=H
TTITLE4=H
TTITLE5=H
TTITLE6=H
TTITLE7=H
TTITLE8=H
TTITLE9=H
TTITLE10=H
EXTD=
EXTT0=
EXTT1=
EXTT2=
EXTT3=
EXTT4=
EXTT5=
EXTT6=
EXTT7=
EXTT8=
EXTT9=
EXTT10=
PLAYORDER=
